<svg width="122" height="206" viewBox="0 0 122 206" fill="none" xmlns="http://www.w3.org/2000/svg">
<rect x="32" width="58" height="58" rx="29" fill="#F8F8F8" class="image-circle"/>
<path fill-rule="evenodd" clip-rule="evenodd" d="M57.0002 26.6667C57.0002 25.7462 57.7464 25 58.6668 25C59.5873 25 60.3335 25.7462 60.3335 26.6667C60.3335 27.5872 59.5873 28.3334 58.6668 28.3334C57.7464 28.3334 57.0002 27.5872 57.0002 26.6667ZM58.6668 26.3334C58.4827 26.3334 58.3335 26.4826 58.3335 26.6667C58.3335 26.8508 58.4827 27 58.6668 27C58.8509 27 59.0002 26.8508 59.0002 26.6667C59.0002 26.4826 58.8509 26.3334 58.6668 26.3334Z" fill="#BABABA"/>
<path fill-rule="evenodd" clip-rule="evenodd" d="M54.3335 24.3334C54.3335 23.2288 55.2289 22.3334 56.3335 22.3334H65.6668C66.7714 22.3334 67.6668 23.2288 67.6668 24.3334V33.6667C67.6668 34.7713 66.7714 35.6667 65.6668 35.6667H56.3335C55.2289 35.6667 54.3335 34.7713 54.3335 33.6667V24.3334ZM56.3335 23.6667C55.9653 23.6667 55.6668 23.9652 55.6668 24.3334V33.6667C55.6668 33.9526 55.8468 34.1965 56.0996 34.2912L63.1955 27.1953C63.4558 26.935 63.8779 26.935 64.1383 27.1953L66.3335 29.3905V24.3334C66.3335 23.9652 66.035 23.6667 65.6668 23.6667H56.3335ZM66.3335 31.2761L63.6669 28.6095L57.943 34.3334H65.6668C66.035 34.3334 66.3335 34.0349 66.3335 33.6667V31.2761Z" fill="#BABABA"/>
<circle cx="35" cy="74" r="8" fill="#BABABA"/>
<circle cx="61" cy="74" r="8" fill="#BABABA"/>
<circle cx="87" cy="74" r="8" fill="#BABABA"/>
<rect y="102" width="122" height="16" rx="3" fill="#BABABA"/>
<path d="M40.6667 125C40.6667 123.343 42.0099 122 43.6667 122H78.3334C79.9903 122 81.3334 123.343 81.3334 125V135C81.3334 136.657 79.9903 138 78.3334 138H43.6668C42.0099 138 40.6667 136.657 40.6667 135V125Z" fill="#BABABA"/>
<rect y="154" width="122" height="10" rx="3" fill="#BABABA"/>
<rect y="168" width="122" height="10" rx="3" fill="#BABABA"/>
<rect y="182" width="122" height="10" rx="3" fill="#BABABA"/>
<path d="M0 199C0 197.343 1.34315 196 3 196H58C59.6569 196 61 197.343 61 199V203C61 204.657 59.6569 206 58 206H3C1.34315 206 0 204.657 0 203V199Z" fill="#BABABA"/>
</svg>
