<svg width="210" height="104" viewBox="0 0 210 104" fill="none" xmlns="http://www.w3.org/2000/svg">
<rect x="5" width="58" height="58" rx="29" fill="#F8F8F8" class="image-circle"/>
<path fill-rule="evenodd" clip-rule="evenodd" d="M30 26.6667C30 25.7462 30.7462 25 31.6667 25C32.5872 25 33.3334 25.7462 33.3334 26.6667C33.3334 27.5872 32.5872 28.3334 31.6667 28.3334C30.7462 28.3334 30 27.5872 30 26.6667ZM31.6667 26.3334C31.4826 26.3334 31.3334 26.4826 31.3334 26.6667C31.3334 26.8508 31.4826 27 31.6667 27C31.8508 27 32 26.8508 32 26.6667C32 26.4826 31.8508 26.3334 31.6667 26.3334Z" fill="#BABABA"/>
<path fill-rule="evenodd" clip-rule="evenodd" d="M27.3334 24.3334C27.3334 23.2288 28.2288 22.3334 29.3334 22.3334H38.6667C39.7713 22.3334 40.6667 23.2288 40.6667 24.3334V33.6667C40.6667 34.7713 39.7713 35.6667 38.6667 35.6667H29.3334C28.2288 35.6667 27.3334 34.7713 27.3334 33.6667V24.3334ZM29.3334 23.6667C28.9652 23.6667 28.6667 23.9652 28.6667 24.3334V33.6667C28.6667 33.9526 28.8467 34.1965 29.0995 34.2912L36.1954 27.1953C36.4557 26.935 36.8778 26.935 37.1382 27.1953L39.3334 29.3905V24.3334C39.3334 23.9652 39.0349 23.6667 38.6667 23.6667H29.3334ZM39.3334 31.2761L36.6668 28.6095L30.9429 34.3334H38.6667C39.0349 34.3334 39.3334 34.0349 39.3334 33.6667V31.2761Z" fill="#BABABA"/>
<circle cx="8" cy="74" r="8" fill="#BABABA"/>
<circle cx="34" cy="74" r="8" fill="#BABABA"/>
<circle cx="60" cy="74" r="8" fill="#BABABA"/>
<rect x="88" width="122" height="16" rx="3" fill="#BABABA"/>
<path d="M88 23C88 21.3431 89.3431 20 91 20H146C147.657 20 149 21.3431 149 23V33C149 34.6569 147.657 36 146 36H91C89.3431 36 88 34.6569 88 33V23Z" fill="#BABABA"/>
<rect x="88" y="52" width="122" height="10" rx="3" fill="#BABABA"/>
<rect x="88" y="66" width="122" height="10" rx="3" fill="#BABABA"/>
<rect x="88" y="80" width="122" height="10" rx="3" fill="#BABABA"/>
<path d="M88 97C88 95.3431 89.3431 94 91 94H146C147.657 94 149 95.3431 149 97V101C149 102.657 147.657 104 146 104H91C89.3431 104 88 102.657 88 101V97Z" fill="#BABABA"/>
</svg>
