<svg width="210" height="104" viewBox="0 0 210 104" fill="none" xmlns="http://www.w3.org/2000/svg">
<rect width="122" height="16" rx="3" fill="#BABABA"/>
<path d="M0 23C0 21.3431 1.34315 20 3 20H58C59.6569 20 61 21.3431 61 23V33C61 34.6569 59.6569 36 58 36H3C1.34315 36 0 34.6569 0 33V23Z" fill="#BABABA"/>
<rect y="52" width="122" height="10" rx="3" fill="#BABABA"/>
<rect y="66" width="122" height="10" rx="3" fill="#BABABA"/>
<rect y="80" width="122" height="10" rx="3" fill="#BABABA"/>
<path d="M0 97C0 95.3431 1.34315 94 3 94H58C59.6569 94 61 95.3431 61 97V101C61 102.657 59.6569 104 58 104H3C1.34315 104 0 102.657 0 101V97Z" fill="#BABABA"/>
<rect x="147" width="58" height="58" rx="29" fill="#F8F8F8" class="image-circle"/>
<path fill-rule="evenodd" clip-rule="evenodd" d="M172 26.6667C172 25.7462 172.746 25 173.667 25C174.587 25 175.333 25.7462 175.333 26.6667C175.333 27.5872 174.587 28.3334 173.667 28.3334C172.746 28.3334 172 27.5872 172 26.6667ZM173.667 26.3334C173.483 26.3334 173.333 26.4826 173.333 26.6667C173.333 26.8508 173.483 27 173.667 27C173.851 27 174 26.8508 174 26.6667C174 26.4826 173.851 26.3334 173.667 26.3334Z" fill="#BABABA"/>
<path fill-rule="evenodd" clip-rule="evenodd" d="M169.333 24.3334C169.333 23.2288 170.229 22.3334 171.333 22.3334H180.667C181.771 22.3334 182.667 23.2288 182.667 24.3334V33.6667C182.667 34.7713 181.771 35.6667 180.667 35.6667H171.333C170.229 35.6667 169.333 34.7713 169.333 33.6667V24.3334ZM171.333 23.6667C170.965 23.6667 170.667 23.9652 170.667 24.3334V33.6667C170.667 33.9526 170.847 34.1965 171.1 34.2912L178.195 27.1953C178.456 26.935 178.878 26.935 179.138 27.1953L181.333 29.3905V24.3334C181.333 23.9652 181.035 23.6667 180.667 23.6667H171.333ZM181.333 31.2761L178.667 28.6095L172.943 34.3334H180.667C181.035 34.3334 181.333 34.0349 181.333 33.6667V31.2761Z" fill="#BABABA"/>
<circle cx="150" cy="74" r="8" fill="#BABABA"/>
<circle cx="176" cy="74" r="8" fill="#BABABA"/>
<circle cx="202" cy="74" r="8" fill="#BABABA"/>
</svg>
