<svg width="308" height="154" viewBox="0 0 308 154" fill="none" xmlns="http://www.w3.org/2000/svg">
<rect x="0.5" width="28" height="28" rx="4" fill="#F8F8F8" class="image-circle"/>
<path d="M21.5 19.4444V8.55556C21.5 7.7 20.8 7 19.9444 7H9.05556C8.2 7 7.5 7.7 7.5 8.55556V19.4444C7.5 20.3 8.2 21 9.05556 21H19.9444C20.8 21 21.5 20.3 21.5 19.4444ZM11.7778 15.1667L13.7222 17.5078L16.4444 14L19.9444 18.6667H9.05556L11.7778 15.1667Z" fill="#BABABA"/>
<rect x="0.5" y="38" width="28" height="28" rx="4" fill="#F8F8F8" class="image-circle"/>
<path d="M21.5 57.4444V46.5556C21.5 45.7 20.8 45 19.9444 45H9.05556C8.2 45 7.5 45.7 7.5 46.5556V57.4444C7.5 58.3 8.2 59 9.05556 59H19.9444C20.8 59 21.5 58.3 21.5 57.4444ZM11.7778 53.1667L13.7222 55.5078L16.4444 52L19.9444 56.6667H9.05556L11.7778 53.1667Z" fill="#BABABA"/>
<rect x="0.5" y="76" width="28" height="28" rx="4" fill="#F8F8F8" class="image-circle"/>
<path d="M21.5 95.4444V84.5556C21.5 83.7 20.8 83 19.9444 83H9.05556C8.2 83 7.5 83.7 7.5 84.5556V95.4444C7.5 96.3 8.2 97 9.05556 97H19.9444C20.8 97 21.5 96.3 21.5 95.4444ZM11.7778 91.1667L13.7222 93.5078L16.4444 90L19.9444 94.6667H9.05556L11.7778 91.1667Z" fill="#BABABA"/>
<rect x="0.5" y="114" width="28" height="28" rx="4" fill="#F8F8F8" class="image-circle"/>
<path d="M21.5 133.444V122.556C21.5 121.7 20.8 121 19.9444 121H9.05556C8.2 121 7.5 121.7 7.5 122.556V133.444C7.5 134.3 8.2 135 9.05556 135H19.9444C20.8 135 21.5 134.3 21.5 133.444ZM11.7778 129.167L13.7222 131.508L16.4444 128L19.9444 132.667H9.05556L11.7778 129.167Z" fill="#BABABA"/>
<rect x="38.5" width="137" height="153" rx="4" fill="#F8F8F8" class="image-circle"/>
<path d="M117.5 84.7778V69.2222C117.5 68 116.5 67 115.278 67H99.7222C98.5 67 97.5 68 97.5 69.2222V84.7778C97.5 86 98.5 87 99.7222 87H115.278C116.5 87 117.5 86 117.5 84.7778ZM103.611 78.6667L106.389 82.0111L110.278 77L115.278 83.6667H99.7222L103.611 78.6667Z" fill="#BABABA"/>
<path d="M185.5 3C185.5 1.34315 186.843 0 188.5 0H243.5C245.157 0 246.5 1.34315 246.5 3V13C246.5 14.6569 245.157 16 243.5 16H188.5C186.843 16 185.5 14.6569 185.5 13V3Z" fill="#BABABA"/>
<rect x="185.5" y="26" width="122" height="10" rx="3" fill="#BABABA"/>
<rect x="185.5" y="40" width="122" height="10" rx="3" fill="#BABABA"/>
<path d="M185.5 57C185.5 55.3431 186.843 54 188.5 54H243.5C245.157 54 246.5 55.3431 246.5 57V61C246.5 62.6569 245.157 64 243.5 64H188.5C186.843 64 185.5 62.6569 185.5 61V57Z" fill="#BABABA"/>
<path d="M185.5 77C185.5 75.3431 186.843 74 188.5 74H217.5C219.157 74 220.5 75.3431 220.5 77V89C220.5 90.6569 219.157 92 217.5 92H188.5C186.843 92 185.5 90.6569 185.5 89V77Z" fill="#BABABA"/>
<path d="M230.5 77C230.5 75.3431 231.843 74 233.5 74H262.5C264.157 74 265.5 75.3431 265.5 77V89C265.5 90.6569 264.157 92 262.5 92H233.5C231.843 92 230.5 90.6569 230.5 89V77Z" fill="#BABABA"/>
<rect x="185.5" y="103" width="8" height="8" rx="4" fill="#BABABA"/>
<rect x="197.5" y="102" width="110" height="10" rx="3" fill="#BABABA"/>
<rect x="185.5" y="117" width="8" height="8" rx="4" fill="#BABABA"/>
<rect x="197.5" y="116" width="110" height="10" rx="3" fill="#BABABA"/>
<rect x="185.5" y="131" width="8" height="8" rx="4" fill="#BABABA"/>
<rect x="197.5" y="130" width="110" height="10" rx="3" fill="#BABABA"/>
<rect x="185.5" y="145" width="8" height="8" rx="4" fill="#BABABA"/>
<rect x="197.5" y="144" width="110" height="10" rx="3" fill="#BABABA"/>
</svg>
