<svg width="222" height="266" viewBox="0 0 222 266" fill="none" xmlns="http://www.w3.org/2000/svg">
<rect width="222" height="82" rx="4" fill="#F8F8F8" class="image-circle"/>
<path d="M121 48.7778V33.2222C121 32 120 31 118.778 31H103.222C102 31 101 32 101 33.2222V48.7778C101 50 102 51 103.222 51H118.778C120 51 121 50 121 48.7778ZM107.111 42.6667L109.889 46.0111L113.778 41L118.778 47.6667H103.222L107.111 42.6667Z" fill="#BABABA"/>
<rect y="92" width="20" height="20" rx="10" fill="#BABABA"/>
<rect x="30" y="92" width="20" height="20" rx="10" fill="#BABABA"/>
<rect x="60" y="92" width="20" height="20" rx="10" fill="#BABABA"/>
<path d="M100 95C100 93.3431 101.343 92 103 92H158C159.657 92 161 93.3431 161 95V105C161 106.657 159.657 108 158 108H103C101.343 108 100 106.657 100 105V95Z" fill="#BABABA"/>
<path d="M100 118C100 116.343 101.343 115 103 115H132C133.657 115 135 116.343 135 118C135 119.657 133.657 121 132 121H103C101.343 121 100 119.657 100 118Z" fill="#BABABA"/>
<path d="M143.5 118C143.5 116.343 144.843 115 146.5 115H175.5C177.157 115 178.5 116.343 178.5 118C178.5 119.657 177.157 121 175.5 121H146.5C144.843 121 143.5 119.657 143.5 118Z" fill="#BABABA"/>
<path d="M187 118C187 116.343 188.343 115 190 115H219C220.657 115 222 116.343 222 118C222 119.657 220.657 121 219 121H190C188.343 121 187 119.657 187 118Z" fill="#BABABA"/>
<rect x="100" y="128" width="122" height="10" rx="3" fill="#BABABA"/>
<rect x="100" y="142" width="122" height="10" rx="3" fill="#BABABA"/>
<path d="M100 159C100 157.343 101.343 156 103 156H158C159.657 156 161 157.343 161 159V163C161 164.657 159.657 166 158 166H103C101.343 166 100 164.657 100 163V159Z" fill="#BABABA"/>
<rect x="100" y="173" width="122" height="42" rx="4" fill="#F8F8F8" class="image-circle"/>
<path d="M171 201.778V186.222C171 185 170 184 168.778 184H153.222C152 184 151 185 151 186.222V201.778C151 203 152 204 153.222 204H168.778C170 204 171 203 171 201.778ZM157.111 195.667L159.889 199.011L163.778 194L168.778 200.667H153.222L157.111 195.667Z" fill="#BABABA"/>
<rect x="100" y="222" width="122" height="10" rx="3" fill="#BABABA"/>
<rect x="100" y="236" width="122" height="10" rx="3" fill="#BABABA"/>
<path d="M100 253C100 251.343 101.343 250 103 250H158C159.657 250 161 251.343 161 253V257C161 258.657 159.657 260 158 260H103C101.343 260 100 258.657 100 257V253Z" fill="#BABABA"/>
</svg>
