<svg width="122" height="218" viewBox="0 0 122 218" fill="none" xmlns="http://www.w3.org/2000/svg">
<path d="M0 3C0 1.34315 1.34315 0 3 0H58C59.6569 0 61 1.34315 61 3V13C61 14.6569 59.6569 16 58 16H3C1.34315 16 0 14.6569 0 13V3Z" fill="#BABABA"/>
<rect y="20" width="122" height="16" rx="3" fill="#BABABA"/>
<path d="M0 49C0 47.3431 1.34315 46 3 46H32C33.6569 46 35 47.3431 35 49C35 50.6569 33.6569 52 32 52H3C1.34315 52 0 50.6569 0 49Z" fill="#BABABA"/>
<path d="M43.5 49C43.5 47.3431 44.8431 46 46.5 46H75.5C77.1569 46 78.5 47.3431 78.5 49C78.5 50.6569 77.1569 52 75.5 52H46.5C44.8431 52 43.5 50.6569 43.5 49Z" fill="#BABABA"/>
<path d="M87 49C87 47.3431 88.3431 46 90 46H119C120.657 46 122 47.3431 122 49C122 50.6569 120.657 52 119 52H90C88.3431 52 87 50.6569 87 49Z" fill="#BABABA"/>
<rect y="62" width="122" height="64" rx="4" fill="#F8F8F8" class="image-circle"/>
<path d="M71 101.778V86.2222C71 85 70 84 68.7778 84H53.2222C52 84 51 85 51 86.2222V101.778C51 103 52 104 53.2222 104H68.7778C70 104 71 103 71 101.778ZM57.1111 95.6667L59.8889 99.0111L63.7778 94L68.7778 100.667H53.2222L57.1111 95.6667Z" fill="#BABABA"/>
<rect y="136" width="122" height="10" rx="3" fill="#BABABA"/>
<rect y="150" width="122" height="10" rx="3" fill="#BABABA"/>
<rect y="164" width="122" height="10" rx="3" fill="#BABABA"/>
<path d="M0 181C0 179.343 1.34315 178 3 178H58C59.6569 178 61 179.343 61 181V185C61 186.657 59.6569 188 58 188H3C1.34315 188 0 186.657 0 185V181Z" fill="#BABABA"/>
<rect y="198" width="20" height="20" rx="10" fill="#BABABA"/>
<rect x="30" y="198" width="20" height="20" rx="10" fill="#BABABA"/>
<rect x="60" y="198" width="20" height="20" rx="10" fill="#BABABA"/>
</svg>
